<svg width="86" height="86" viewBox="0 0 86 86" fill="none" xmlns="http://www.w3.org/2000/svg">
<path d="M53.75 59.1253V68.0837C53.75 71.4229 53.75 73.0925 53.2045 74.4096C52.4771 76.1656 51.0819 77.5608 49.3259 78.2881C48.0089 78.8337 46.3392 78.8337 43 78.8337C39.6608 78.8337 37.9911 78.8337 36.6741 78.2881C34.9181 77.5608 33.5229 76.1656 32.7955 74.4096C32.25 73.0925 32.25 71.4229 32.25 68.0837V59.1253M53.75 59.1253C63.2417 54.9782 69.875 45.0625 69.875 34.042C69.875 19.1993 57.8427 7.16699 43 7.16699C28.1573 7.16699 16.125 19.1993 16.125 34.042C16.125 45.0625 22.7583 54.9782 32.25 59.1253M53.75 59.1253H32.25" stroke="white" stroke-width="4" stroke-linecap="round" stroke-linejoin="round"/>
<path d="M42.9961 57.335V41.21" stroke="white" stroke-width="4"/>
<circle cx="43" cy="32.248" r="8.75" stroke="white" stroke-width="4"/>
</svg>
