<svg width="16" height="16" viewBox="0 0 16 16" fill="none" xmlns="http://www.w3.org/2000/svg">
<path d="M1.33301 5.58547C1.33301 5.35192 1.33301 5.23515 1.34275 5.13679C1.43674 4.18816 2.18719 3.43772 3.13582 3.34373C3.23417 3.33398 3.35725 3.33398 3.6034 3.33398C3.69824 3.33398 3.74567 3.33398 3.78593 3.33155C4.30008 3.30041 4.75031 2.9759 4.94244 2.49798C4.95748 2.46056 4.97155 2.41837 4.99967 2.33398C5.0278 2.2496 5.04187 2.20741 5.05691 2.16999C5.24904 1.69207 5.69927 1.36756 6.21342 1.33642C6.25368 1.33398 6.29815 1.33398 6.3871 1.33398H9.61225C9.70119 1.33398 9.74567 1.33398 9.78593 1.33642C10.3001 1.36756 10.7503 1.69207 10.9424 2.16999C10.9575 2.20741 10.9715 2.2496 10.9997 2.33398C11.0278 2.41837 11.0419 2.46056 11.0569 2.49798C11.249 2.9759 11.6993 3.30041 12.2134 3.33155C12.2537 3.33398 12.3011 3.33398 12.396 3.33398C12.6421 3.33398 12.7652 3.33398 12.8635 3.34373C13.8122 3.43772 14.5626 4.18816 14.6566 5.13679C14.6663 5.23515 14.6663 5.35192 14.6663 5.58547V10.8007C14.6663 11.9208 14.6663 12.4808 14.4484 12.9086C14.2566 13.285 13.9506 13.5909 13.5743 13.7827C13.1465 14.0007 12.5864 14.0007 11.4663 14.0007H4.53301C3.4129 14.0007 2.85285 14.0007 2.42503 13.7827C2.0487 13.5909 1.74274 13.285 1.55099 12.9086C1.33301 12.4808 1.33301 11.9208 1.33301 10.8007V5.58547Z"  stroke-width="2" stroke-linecap="round" stroke-linejoin="round"/>
<path d="M7.99967 11.0007C9.47243 11.0007 10.6663 9.80674 10.6663 8.33398C10.6663 6.86123 9.47243 5.66732 7.99967 5.66732C6.52692 5.66732 5.33301 6.86123 5.33301 8.33398C5.33301 9.80674 6.52692 11.0007 7.99967 11.0007Z"  stroke-width="2" stroke-linecap="round" stroke-linejoin="round"/>
</svg>
