<svg width="19" height="19" viewBox="0 0 19 19" fill="none" xmlns="http://www.w3.org/2000/svg">
<path d="M17.1977 7.39773L17.3033 7.45055H17.3061C17.6511 7.64559 17.9419 7.92515 18.1505 8.26376C18.379 8.63459 18.5 9.06164 18.5 9.49728C18.5 9.93291 18.379 10.36 18.1505 10.7308C17.9221 11.1015 17.5952 11.4015 17.2063 11.5972C17.2063 11.5973 17.2062 11.5973 17.2061 11.5974L3.91156 18.2469C3.91096 18.2472 3.91036 18.2475 3.90976 18.2478C3.57852 18.4098 3.21538 18.4959 2.84672 18.5C2.45605 18.4995 2.07166 18.4015 1.72832 18.215C1.38424 18.028 1.09229 17.758 0.879036 17.4294C0.665777 17.1009 0.537971 16.7242 0.507245 16.3336C0.476528 15.9432 0.543808 15.5513 0.702965 15.1934C0.703013 15.1933 0.70306 15.1932 0.703108 15.1931L2.98268 10.0908L2.9828 10.0909L2.98728 10.0802C3.06468 9.89563 3.10454 9.69745 3.10454 9.49728C3.10454 9.2971 3.06468 9.09893 2.98728 8.91433L2.9874 8.91427L2.98268 8.90371L0.703532 3.80238C0.703417 3.80212 0.703302 3.80186 0.703187 3.8016C0.507782 3.35956 0.453321 2.86799 0.547242 2.39385C0.641218 1.91943 0.879171 1.48557 1.22863 1.15142C1.57808 0.817269 2.02203 0.599082 2.49994 0.526577C2.9777 0.454093 3.46619 0.530727 3.89885 0.746043C3.89898 0.746107 3.89911 0.74617 3.89924 0.746233L17.1977 7.39773ZM16.7996 10.7902L16.7996 10.7902L16.8039 10.788C17.0415 10.6663 17.2408 10.4813 17.3799 10.2536C17.5191 10.0259 17.5927 9.76416 17.5927 9.49728C17.5927 9.2304 17.5191 8.96868 17.3799 8.74095C17.2408 8.51321 17.0415 8.32829 16.8039 8.20657L16.804 8.20654L16.7996 8.20435L3.5003 1.55245L3.50033 1.55239L3.49311 1.54892C3.22654 1.42088 2.92719 1.37743 2.63522 1.4244C2.34324 1.47136 2.07262 1.6065 1.85964 1.81167C1.64666 2.01683 1.5015 2.2822 1.44359 2.57219C1.38568 2.86218 1.41778 3.16296 1.5356 3.43419L1.53558 3.4342L1.53737 3.43823L3.8065 8.53837C3.82772 8.58783 3.84607 8.63847 3.86147 8.69004L3.96804 9.04701H4.34057H10.8857C11.005 9.04701 11.1194 9.0944 11.2038 9.17883C11.2882 9.26326 11.3357 9.3778 11.3357 9.49728C11.3357 9.61675 11.2882 9.7313 11.2038 9.81573C11.1194 9.90015 11.005 9.94755 10.8857 9.94755H4.34057H3.96804L3.86147 10.3045C3.84607 10.3561 3.82772 10.4067 3.8065 10.4562L1.53737 15.5563L1.53735 15.5563L1.5356 15.5604C1.41778 15.8316 1.38568 16.1324 1.44359 16.4224C1.5015 16.7123 1.64666 16.9777 1.85964 17.1829C2.07263 17.3881 2.34324 17.5232 2.63522 17.5702C2.92719 17.6171 3.22654 17.5737 3.49311 17.4456L3.49314 17.4457L3.5003 17.4421L16.7996 10.7902Z" stroke="#F0F0F0"/>
</svg>
