<svg width="20" height="20" viewBox="0 0 20 20" fill="none" xmlns="http://www.w3.org/2000/svg">
<path d="M10.0007 10.8327C10.4609 10.8327 10.834 10.4596 10.834 9.99935C10.834 9.53911 10.4609 9.16602 10.0007 9.16602C9.54041 9.16602 9.16732 9.53911 9.16732 9.99935C9.16732 10.4596 9.54041 10.8327 10.0007 10.8327Z"  stroke-width="2" stroke-linecap="round" stroke-linejoin="round"/>
<path d="M15.834 10.8327C16.2942 10.8327 16.6673 10.4596 16.6673 9.99935C16.6673 9.53911 16.2942 9.16602 15.834 9.16602C15.3737 9.16602 15.0007 9.53911 15.0007 9.99935C15.0007 10.4596 15.3737 10.8327 15.834 10.8327Z"  stroke-width="2" stroke-linecap="round" stroke-linejoin="round"/>
<path d="M4.16732 10.8327C4.62755 10.8327 5.00065 10.4596 5.00065 9.99935C5.00065 9.53911 4.62755 9.16602 4.16732 9.16602C3.70708 9.16602 3.33398 9.53911 3.33398 9.99935C3.33398 10.4596 3.70708 10.8327 4.16732 10.8327Z"  stroke-width="2" stroke-linecap="round" stroke-linejoin="round"/>
</svg>
