<svg width="69" height="24" viewBox="0 0 69 24" fill="none" xmlns="http://www.w3.org/2000/svg">
<path d="M27.7578 4.85938H31.4297V14.5664C31.4102 17.3398 29.2422 19.1953 26.1367 19.1953C23.4414 19.1953 21.2344 17.8477 21.2539 14.6445H24.9648C25.0039 15.7188 25.5117 16.2852 26.3711 16.2852C27.2695 16.2852 27.7383 15.6992 27.7578 14.5664V4.85938ZM42.8578 10.543V13.3359H36.2563V10.543H42.8578ZM51.2195 19H47.1961L51.9031 4.85938H56.9617L61.6492 19H57.6453L56.8055 16.2266H52.0594L51.2195 19ZM52.9188 13.4141H55.9461L54.4813 8.66797H54.3641L52.9188 13.4141Z" fill="#97CDBD"/>
<rect x="65" y="8" width="4" height="11" fill="#97CDBD"/>
<circle cx="67" cy="5" r="1.5" stroke="#97CDBD"/>
<path d="M12.6039 15.8633V17.9639C12.6039 18.747 12.6039 19.1385 12.476 19.4473C12.3054 19.8591 11.9783 20.1862 11.5665 20.3568C11.2577 20.4847 10.8661 20.4847 10.0831 20.4847C9.30011 20.4847 8.90861 20.4847 8.59978 20.3568C8.18801 20.1862 7.86086 19.8591 7.6903 19.4473C7.56238 19.1385 7.56238 18.747 7.56238 17.9639V15.8633M12.6039 15.8633C14.8296 14.8909 16.385 12.5657 16.385 9.98157C16.385 6.50114 13.5636 3.67969 10.0831 3.67969C6.6027 3.67969 3.78125 6.50114 3.78125 9.98157C3.78125 12.5657 5.33667 14.8909 7.56238 15.8633M12.6039 15.8633H7.56238" stroke="#727272" stroke-linecap="round" stroke-linejoin="round"/>
<path d="M10.083 15.4432V11.6621" stroke="#727272"/>
<circle cx="10.0833" cy="9.56177" r="2.02075" stroke="#97CDBD"/>
</svg>
