<svg width="81" height="16" viewBox="0 0 81 16" fill="none" xmlns="http://www.w3.org/2000/svg">
<path d="M0.191406 15V0.859375H5.73828C8.96094 0.859375 10.7969 2.83203 10.7969 5.625C10.7969 8.45703 8.92188 10.3906 5.66016 10.3906H3.12109V15H0.191406ZM3.12109 8.02734H5.19141C6.92969 8.02734 7.76953 7.05078 7.76953 5.625C7.76953 4.21875 6.92969 3.26172 5.19141 3.26172H3.12109V8.02734ZM15.2344 0.859375V15H12.3438V0.859375H15.2344ZM16.7227 12.0312C16.7227 9.66797 18.6367 8.88672 20.668 8.76953C21.4297 8.7207 22.8555 8.65234 23.3047 8.63281V7.77344C23.2852 6.89453 22.6797 6.36719 21.6055 6.36719C20.6289 6.36719 20.0039 6.81641 19.8477 7.53906H17.0938C17.2695 5.70312 18.8711 4.25781 21.6836 4.25781C23.9883 4.25781 26.1758 5.29297 26.1758 7.85156V15H23.4414V13.5352H23.3633C22.8359 14.5117 21.8398 15.1953 20.2578 15.1953C18.2266 15.1953 16.7227 14.1406 16.7227 12.0312ZM19.4961 11.9531C19.4961 12.7734 20.1602 13.2031 21.0781 13.2031C22.3867 13.2031 23.3242 12.3242 23.3047 11.2109V10.4297C22.8652 10.4492 21.6348 10.5176 21.1367 10.5664C20.1406 10.6641 19.4961 11.1328 19.4961 11.9531ZM31.0234 8.86719V15H28.1328V4.39453H30.8867V6.25H31.0039C31.4922 5.01953 32.625 4.25781 34.1875 4.25781C36.3945 4.25781 37.8594 5.76172 37.8398 8.24219V15H34.9688V8.75C34.9688 7.44141 34.2461 6.66016 33.0547 6.66016C31.8438 6.66016 31.0234 7.46094 31.0234 8.86719ZM42.0625 15L38.0195 0.859375H41.2227L43.6055 10.7422H43.7227L46.3203 0.859375H49.0742L51.6719 10.7617H51.7891L54.1719 0.859375H57.375L53.332 15H50.4609L47.7656 5.66406H47.6484L44.9336 15H42.0625ZM58.5703 15V4.39453H61.4609V15H58.5703ZM60.0156 3.00781C59.1367 3.00781 58.4336 2.34375 58.4336 1.54297C58.4336 0.722656 59.1367 0.0585938 60.0156 0.0585938C60.875 0.0585938 61.5781 0.722656 61.5781 1.54297C61.5781 2.34375 60.875 3.00781 60.0156 3.00781ZM69.043 4.39453V6.5625H67.0508V11.7383C67.0508 12.5781 67.4609 12.793 68.0469 12.8125C68.3398 12.8125 68.8477 12.793 69.1992 12.7539V15.0391C68.8867 15.0977 68.3789 15.1367 67.6562 15.1367C65.5664 15.1367 64.1406 14.1992 64.1602 12.1484V6.5625H62.6953V4.39453H64.1602V1.85547H67.0508V4.39453H69.043ZM73.7344 8.86719V15H70.8438V0.859375H73.6562V6.25H73.7734C74.2617 5.01953 75.3359 4.25781 76.9375 4.25781C79.1445 4.25781 80.6094 5.74219 80.6094 8.24219V15H77.7188V8.75C77.7188 7.44141 77.0156 6.66016 75.8047 6.66016C74.5938 6.66016 73.7344 7.46094 73.7344 8.86719Z"/>
</svg>
